<?xml version="1.0" standalone="no"?><!DOCTYPE svg PUBLIC "-//W3C//DTD SVG 1.1//EN" "http://www.w3.org/Graphics/SVG/1.1/DTD/svg11.dtd"><svg t="1770012446436" class="icon" viewBox="0 0 1024 1024" version="1.1" xmlns="http://www.w3.org/2000/svg" p-id="14668" xmlns:xlink="http://www.w3.org/1999/xlink" width="200" height="200"><path d="M512 1024c-130.8 0-254.5-22.7-348.3-63.8C58.1 913.8 0 847.7 0 774c0-24.9 20.1-45 45-45s45 20.1 45 45c0 34.8 41.1 73.6 109.9 103.8C282.5 914 393.3 934 512 934s229.5-20 312.1-56.2C892.9 847.6 934 808.8 934 774c0-24.9 20.1-45 45-45s45 20.1 45 45c0 73.7-58.1 139.8-163.7 186.2-93.8 41.1-217.5 63.8-348.3 63.8z" p-id="14669"></path><path d="M512 763c-130.8 0-254.5-22.7-348.3-63.8C58.1 652.8 0 586.7 0 513c0-24.9 20.1-45 45-45s45 20.1 45 45c0 34.8 41.1 73.6 109.9 103.8C282.5 653 393.3 673 512 673s229.5-20 312.1-56.2C892.9 586.6 934 547.8 934 513c0-24.9 20.1-45 45-45s45 20.1 45 45c0 73.7-58.1 139.8-163.7 186.2C766.5 740.3 642.8 763 512 763z" p-id="14670"></path><path d="M512 500c-130.8 0-254.5-22.7-348.3-63.8C58.1 389.8 0 323.7 0 250S58.1 110.2 163.7 63.8C257.5 22.7 381.2 0 512 0s254.5 22.7 348.3 63.8C965.9 110.2 1024 176.3 1024 250s-58.1 139.8-163.7 186.2C766.5 477.3 642.8 500 512 500z m0-410c-118.7 0-229.5 20-312.1 56.2C131.1 176.4 90 215.2 90 250s41.1 73.6 109.9 103.8C282.5 390 393.3 410 512 410s229.5-20 312.1-56.2C892.9 323.6 934 284.8 934 250s-41.1-73.6-109.9-103.8C741.5 110 630.7 90 512 90z" p-id="14671"></path><path d="M45 819c-24.9 0-45-20.1-45-45V250c0-24.9 20.1-45 45-45s45 20.1 45 45v524c0 24.9-20.1 45-45 45zM979 819c-24.9 0-45-20.1-45-45V250c0-24.9 20.1-45 45-45s45 20.1 45 45v524c0 24.9-20.1 45-45 45z" p-id="14672"></path></svg>