<?xml version="1.0" standalone="no"?><!DOCTYPE svg PUBLIC "-//W3C//DTD SVG 1.1//EN" "http://www.w3.org/Graphics/SVG/1.1/DTD/svg11.dtd"><svg t="1770020823856" class="icon" viewBox="0 0 1024 1024" version="1.1" xmlns="http://www.w3.org/2000/svg" p-id="11815" xmlns:xlink="http://www.w3.org/1999/xlink" width="200" height="200"><path d="M512 251.960889c-35.783111 0-65.024 29.240889-65.024 64.967111 0 35.783111 29.240889 65.024 65.024 65.024s65.024-29.240889 65.024-65.024c0-35.726222-29.240889-64.967111-65.024-64.967111M113.777778 512c0-219.704889 178.517333-398.222222 398.222222-398.222222s398.222222 178.517333 398.222222 398.222222-178.517333 398.222222-398.222222 398.222222-398.222222-178.517333-398.222222-398.222222zM0 512c0 283.079111 228.920889 512 512 512s512-228.920889 512-512-228.920889-512-512-512-512 228.920889-512 512z m446.976 0v195.072c0 35.726222 29.240889 64.967111 65.024 64.967111s65.024-29.240889 65.024-64.967111V512c0-35.783111-29.240889-65.024-65.024-65.024S446.976 476.216889 446.976 512z" p-id="11816"></path></svg>