<?xml version="1.0" standalone="no"?><!DOCTYPE svg PUBLIC "-//W3C//DTD SVG 1.1//EN" "http://www.w3.org/Graphics/SVG/1.1/DTD/svg11.dtd"><svg t="1770020754412" class="icon" viewBox="0 0 1024 1024" version="1.1" xmlns="http://www.w3.org/2000/svg" p-id="8984" xmlns:xlink="http://www.w3.org/1999/xlink" width="200" height="200"><path d="M896 320H704V192c0-35.2-28.8-64-64-64H384c-35.2 0-64 28.8-64 64v128H128c-35.2 0-64 28.8-64 64v448c0 35.2 28.8 64 64 64h768c35.2 0 64-28.8 64-64V384c0-35.2-28.8-64-64-64zM384 192h256v128H384V192z m512 640H128V384h768v448z" fill="currentColor" p-id="8985"></path><path d="M288 512h448v64H288zM288 640h448v64H288z" fill="currentColor" p-id="8986"></path></svg>
